<?xml version="1.0" encoding="utf-8"?>
<!-- Generator: Adobe Illustrator 26.5.0, SVG Export Plug-In . SVG Version: 6.00 Build 0)  -->
<svg version="1.1" id="Layer_1" xmlns="http://www.w3.org/2000/svg" xmlns:xlink="http://www.w3.org/1999/xlink" x="0px" y="0px"
	 viewBox="0 0 700 551.8" style="enable-background:new 0 0 700 551.8;" xml:space="preserve">
<style type="text/css">
	.st0{fill-rule:evenodd;clip-rule:evenodd;}
</style>
<path class="st0" d="M55.9,0h588.2C674.8,0,700,25.2,700,55.9s-25.2,55.9-55.9,55.9H55.9C25.2,111.9,0,86.7,0,55.9S25.2,0,55.9,0
	L55.9,0z"/>
<path class="st0" d="M55.9,220h588.2c30.8,0,55.9,25.2,55.9,55.9s-25.2,55.9-55.9,55.9H55.9C25.2,331.8,0,306.7,0,275.9
	S25.2,220,55.9,220L55.9,220z"/>
<path class="st0" d="M55.9,439.9h588.2c30.8,0,55.9,25.2,55.9,55.9s-25.2,55.9-55.9,55.9H55.9C25.2,551.8,0,526.6,0,495.9
	S25.2,439.9,55.9,439.9L55.9,439.9z"/>
</svg>
