<?xml version="1.0" encoding="utf-8"?>
<!-- Generator: Adobe Illustrator 26.5.0, SVG Export Plug-In . SVG Version: 6.00 Build 0)  -->
<svg version="1.1" id="Layer_1" xmlns="http://www.w3.org/2000/svg" xmlns:xlink="http://www.w3.org/1999/xlink" x="0px" y="0px"
	 viewBox="0 0 232.5 233.6" style="enable-background:new 0 0 232.5 233.6;" xml:space="preserve">
<path d="M7.1,226.8c4.4,4.4,10.3,6.8,16.5,6.8s12.1-2.5,16.5-6.8l76.8-76.8l76.8,76.8c5.9,5.7,14.4,7.9,22.4,5.7
	c7.9-2.2,14.2-8.4,16.3-16.3c2.2-7.9,0-16.5-5.7-22.4L149.9,117l76.8-76.8c4.5-4.3,7.1-10.3,7.1-16.6c0.1-6.3-2.4-12.3-6.8-16.7
	c-4.4-4.4-10.4-6.9-16.7-6.8c-6.3,0.1-12.2,2.6-16.6,7.1L117,84L40.1,7.1C35.8,2.6,29.8,0.1,23.5,0C17.3-0.1,11.3,2.4,6.8,6.8
	C2.4,11.3-0.1,17.3,0,23.5c0.1,6.3,2.6,12.2,7.1,16.6L84,117L7.1,193.8c-4.4,4.4-6.8,10.3-6.8,16.5S2.8,222.4,7.1,226.8L7.1,226.8z"
	/>
</svg>
